<mxfile host="65bd71144e">
    <diagram name="Page-1" id="22Lgfd72BfCtEWzZPwcf">
        <mxGraphModel dx="529" dy="509" grid="1" gridSize="10" guides="1" tooltips="1" connect="1" arrows="1" fold="1" page="1" pageScale="1" pageWidth="850" pageHeight="1100" math="0" shadow="0">
            <root>
                <mxCell id="0"/>
                <mxCell id="1" parent="0"/>
                <mxCell id="ZbTbIuqHq11XHcCNHoBX-1" value="Task" style="swimlane;fontStyle=1;align=center;verticalAlign=top;childLayout=stackLayout;horizontal=1;startSize=26;horizontalStack=0;resizeParent=1;resizeParentMax=0;resizeLast=0;collapsible=1;marginBottom=0;whiteSpace=wrap;html=1;" parent="1" vertex="1">
                    <mxGeometry x="250" y="180" width="250" height="300" as="geometry"/>
                </mxCell>
                <mxCell id="ZbTbIuqHq11XHcCNHoBX-2" value="&lt;div&gt;- description: str&lt;/div&gt;&lt;div&gt;- status: TaskStatus&lt;br&gt;&lt;/div&gt;&lt;div&gt;- id: int&lt;/div&gt;&lt;div&gt;- updated_at: datetime&lt;/div&gt;&lt;div&gt;- created_at: datetime&lt;/div&gt;" style="text;strokeColor=none;fillColor=none;align=left;verticalAlign=top;spacingLeft=4;spacingRight=4;overflow=hidden;rotatable=0;points=[[0,0.5],[1,0.5]];portConstraint=eastwest;whiteSpace=wrap;html=1;" parent="ZbTbIuqHq11XHcCNHoBX-1" vertex="1">
                    <mxGeometry y="26" width="250" height="84" as="geometry"/>
                </mxCell>
                <mxCell id="ZbTbIuqHq11XHcCNHoBX-3" value="" style="line;strokeWidth=1;fillColor=none;align=left;verticalAlign=middle;spacingTop=-1;spacingLeft=3;spacingRight=3;rotatable=0;labelPosition=right;points=[];portConstraint=eastwest;strokeColor=inherit;" parent="ZbTbIuqHq11XHcCNHoBX-1" vertex="1">
                    <mxGeometry y="110" width="250" height="8" as="geometry"/>
                </mxCell>
                <mxCell id="ZbTbIuqHq11XHcCNHoBX-4" value="&lt;div&gt;+ get_description(self): str&lt;/div&gt;&lt;div&gt;+ get_id(self): id&lt;/div&gt;&lt;div&gt;+ get_update_time(self): datetime&lt;/div&gt;&lt;div&gt;+ get_creation_time(self): datetime&lt;/div&gt;&lt;div&gt;+ get_status(self): TaskStatus&lt;/div&gt;&lt;div&gt;&lt;br&gt;&lt;/div&gt;&lt;div&gt;+ set_description(self, str): None&lt;/div&gt;&lt;div&gt;+ set_id(self, int): None&lt;/div&gt;&lt;div&gt;+ set_update_time(self, datetime): None&lt;/div&gt;&lt;div&gt;+ set_creation_time(self, datetime): None&lt;/div&gt;&lt;div&gt;+ set_status(self, TaskStatus): None&lt;/div&gt;" style="text;strokeColor=none;fillColor=none;align=left;verticalAlign=top;spacingLeft=4;spacingRight=4;overflow=hidden;rotatable=0;points=[[0,0.5],[1,0.5]];portConstraint=eastwest;whiteSpace=wrap;html=1;" parent="ZbTbIuqHq11XHcCNHoBX-1" vertex="1">
                    <mxGeometry y="118" width="250" height="182" as="geometry"/>
                </mxCell>
                <mxCell id="ZbTbIuqHq11XHcCNHoBX-5" value="TaskManager" style="swimlane;fontStyle=1;align=center;verticalAlign=top;childLayout=stackLayout;horizontal=1;startSize=26;horizontalStack=0;resizeParent=1;resizeParentMax=0;resizeLast=0;collapsible=1;marginBottom=0;whiteSpace=wrap;html=1;" parent="1" vertex="1">
                    <mxGeometry x="610" y="235" width="250" height="182" as="geometry"/>
                </mxCell>
                <mxCell id="ZbTbIuqHq11XHcCNHoBX-6" value="- database_path: str&lt;br&gt;- buffer: dict" style="text;strokeColor=none;fillColor=none;align=left;verticalAlign=top;spacingLeft=4;spacingRight=4;overflow=hidden;rotatable=0;points=[[0,0.5],[1,0.5]];portConstraint=eastwest;whiteSpace=wrap;html=1;" parent="ZbTbIuqHq11XHcCNHoBX-5" vertex="1">
                    <mxGeometry y="26" width="250" height="42" as="geometry"/>
                </mxCell>
                <mxCell id="ZbTbIuqHq11XHcCNHoBX-7" value="" style="line;strokeWidth=1;fillColor=none;align=left;verticalAlign=middle;spacingTop=-1;spacingLeft=3;spacingRight=3;rotatable=0;labelPosition=right;points=[];portConstraint=eastwest;strokeColor=inherit;" parent="ZbTbIuqHq11XHcCNHoBX-5" vertex="1">
                    <mxGeometry y="68" width="250" height="8" as="geometry"/>
                </mxCell>
                <mxCell id="ZbTbIuqHq11XHcCNHoBX-8" value="&lt;div&gt;+ save(self, Task): bool&lt;/div&gt;&lt;div&gt;+ update_task(self, int): bool&lt;/div&gt;&lt;div&gt;+ delete_task(self, int): bool&lt;/div&gt;&lt;div&gt;+ find_by_id(self, int): bool&lt;/div&gt;&lt;div&gt;+ list(self, TaskStatus): None&lt;/div&gt;&lt;div&gt;+ update_status(self, int, TaskStatus): bool&lt;/div&gt;&lt;div&gt;+ close: None&lt;/div&gt;" style="text;strokeColor=none;fillColor=none;align=left;verticalAlign=top;spacingLeft=4;spacingRight=4;overflow=hidden;rotatable=0;points=[[0,0.5],[1,0.5]];portConstraint=eastwest;whiteSpace=wrap;html=1;" parent="ZbTbIuqHq11XHcCNHoBX-5" vertex="1">
                    <mxGeometry y="76" width="250" height="106" as="geometry"/>
                </mxCell>
                <mxCell id="ZbTbIuqHq11XHcCNHoBX-9" style="edgeStyle=none;curved=1;rounded=0;orthogonalLoop=1;jettySize=auto;html=1;fontSize=12;startSize=8;endSize=8;" parent="1" source="ZbTbIuqHq11XHcCNHoBX-5" edge="1">
                    <mxGeometry relative="1" as="geometry">
                        <mxPoint x="500" y="325" as="targetPoint"/>
                    </mxGeometry>
                </mxCell>
                <mxCell id="ZbTbIuqHq11XHcCNHoBX-10" value="TaskStatus(Enum)" style="swimlane;fontStyle=0;childLayout=stackLayout;horizontal=1;startSize=26;fillColor=none;horizontalStack=0;resizeParent=1;resizeParentMax=0;resizeLast=0;collapsible=1;marginBottom=0;whiteSpace=wrap;html=1;" parent="1" vertex="1">
                    <mxGeometry y="280" width="140" height="80" as="geometry"/>
                </mxCell>
                <mxCell id="ZbTbIuqHq11XHcCNHoBX-11" value="&lt;div&gt;+ TO_DO: str&lt;/div&gt;&lt;div&gt;+ IN_PROGRESS: str&lt;/div&gt;&lt;div&gt;+DONE: str&lt;br&gt;&lt;/div&gt;" style="text;strokeColor=none;fillColor=none;align=left;verticalAlign=top;spacingLeft=4;spacingRight=4;overflow=hidden;rotatable=0;points=[[0,0.5],[1,0.5]];portConstraint=eastwest;whiteSpace=wrap;html=1;" parent="ZbTbIuqHq11XHcCNHoBX-10" vertex="1">
                    <mxGeometry y="26" width="140" height="54" as="geometry"/>
                </mxCell>
                <mxCell id="3" value="" style="endArrow=diamondThin;endFill=1;endSize=24;html=1;entryX=0;entryY=0.121;entryDx=0;entryDy=0;entryPerimeter=0;exitX=1.017;exitY=0.276;exitDx=0;exitDy=0;exitPerimeter=0;" parent="1" source="ZbTbIuqHq11XHcCNHoBX-11" target="ZbTbIuqHq11XHcCNHoBX-4" edge="1">
                    <mxGeometry width="160" relative="1" as="geometry">
                        <mxPoint x="120" y="390" as="sourcePoint"/>
                        <mxPoint x="280" y="390" as="targetPoint"/>
                    </mxGeometry>
                </mxCell>
            </root>
        </mxGraphModel>
    </diagram>
</mxfile>